<?xml version="1.0" standalone="no"?>
<!DOCTYPE svg PUBLIC "-//W3C//DTD SVG 20010904//EN"
 "http://www.w3.org/TR/2001/REC-SVG-20010904/DTD/svg10.dtd">
<svg version="1.0" xmlns="http://www.w3.org/2000/svg"
 width="1200.000000pt" height="1200.000000pt" viewBox="0 0 1200.000000 1200.000000"
 preserveAspectRatio="xMidYMid meet">

<g transform="translate(0.000000,1200.000000) scale(0.100000,-0.100000)"
fill="#000000" stroke="none">
<path d="M1190 6000 l0 -4810 4810 0 4810 0 0 4810 0 4810 -4810 0 -4810 0 0
-4810z m9360 0 l0 -4550 -4550 0 -4550 0 0 4550 0 4550 4550 0 4550 0 0 -4550z"/>
<path d="M7740 6020 l0 -720 120 0 120 0 0 188 0 188 40 39 c35 34 42 37 53
25 7 -8 84 -111 171 -227 l158 -213 134 0 c74 0 134 3 134 7 0 3 -100 139
-222 301 l-223 295 199 192 198 193 -128 4 -129 5 -65 -60 c-36 -34 -114 -108
-175 -167 -60 -58 -118 -112 -128 -119 -17 -14 -18 3 -15 387 l3 402 -122 0
-123 0 0 -720z"/>
<path d="M3380 5975 l0 -677 273 5 c232 4 283 8 349 25 96 26 148 52 204 104
66 61 97 133 102 238 4 79 2 93 -23 148 -30 67 -108 149 -169 179 -20 9 -36
19 -36 23 0 3 14 14 31 24 45 27 95 82 121 135 18 37 23 63 23 136 0 81 -3 95
-30 143 -33 61 -67 93 -134 127 -99 49 -148 57 -438 62 l-273 5 0 -677z m540
458 c71 -32 93 -63 98 -136 3 -53 0 -67 -20 -97 -13 -19 -44 -46 -68 -59 -39
-22 -60 -25 -177 -29 l-133 -5 0 178 0 178 128 -5 c99 -4 137 -9 172 -25z
m-16 -524 c107 -30 160 -99 161 -210 0 -84 -31 -135 -102 -170 -43 -21 -64
-24 -195 -27 l-148 -3 0 210 0 211 123 0 c67 0 140 -5 161 -11z"/>
<path d="M5903 6295 c-167 -36 -294 -171 -338 -357 -19 -81 -19 -215 0 -296
40 -169 161 -293 330 -337 67 -17 218 -20 284 -4 64 14 143 56 196 103 l47 41
-62 57 -62 58 -42 -31 c-141 -100 -363 -68 -440 64 -14 24 -29 65 -32 90 l-7
47 330 0 330 0 6 48 c8 67 -10 203 -33 263 -82 206 -277 304 -507 254z m157
-176 c52 -11 110 -52 131 -91 6 -11 14 -42 18 -69 l8 -49 -219 0 -220 0 7 33
c19 85 86 161 152 172 21 4 43 8 48 10 17 6 22 5 75 -6z"/>
<path d="M6980 6299 c-108 -21 -232 -109 -295 -209 -86 -135 -104 -346 -44
-506 47 -125 161 -233 292 -275 57 -18 83 -21 172 -17 95 4 111 8 179 41 247
123 344 439 216 703 -100 204 -301 306 -520 263z m160 -189 c183 -51 242 -392
96 -557 -50 -57 -89 -76 -156 -77 -65 0 -108 20 -156 72 -94 102 -109 317 -33
450 57 100 147 140 249 112z"/>
<path d="M4490 5963 c0 -348 7 -419 49 -502 57 -110 140 -162 271 -169 115 -5
180 19 256 94 l54 54 0 -44 c0 -25 4 -56 10 -70 9 -26 11 -26 116 -26 106 0
106 0 98 23 -4 12 -9 235 -11 495 l-4 472 -114 0 -113 0 -4 -322 c-3 -283 -6
-328 -21 -363 -38 -85 -99 -125 -191 -125 -48 0 -60 4 -91 31 -60 53 -65 88
-65 456 l0 323 -120 0 -120 0 0 -327z"/>
</g>
</svg>
